<svg width="475" height="475" viewBox="0 0 475 475" fill="none" xmlns="http://www.w3.org/2000/svg">
<path d="M0 0H475V475H0V0Z" fill="#C7C6C6"/>
<path d="M447.568 305.816L447.568 307.112C447.568 307.664 447.736 307.856 448.288 307.856L456.88 307.856C457.048 308.504 457.216 309.32 457.216 310.328C457.216 312.08 456.448 312.944 454.84 312.944L448.288 312.944C447.736 312.944 447.568 313.112 447.568 313.664L447.568 314.984C447.568 315.536 447.736 315.728 448.288 315.728L454.936 315.728C457.96 315.728 459.76 314.144 459.76 310.712C459.76 309.536 459.592 308.6 459.424 307.856L460.552 307.856C462.256 307.856 463.144 308.72 463.144 310.4C463.144 311.696 462.712 312.416 461.92 312.92C461.416 313.28 461.344 313.544 461.632 314.12L462.136 315.032C462.424 315.608 462.808 315.68 463.336 315.344C464.752 314.48 465.64 312.944 465.64 310.352C465.64 306.584 463.552 305.072 460.408 305.072L448.288 305.072C447.736 305.072 447.568 305.264 447.568 305.816ZM447.568 292.791L447.568 300.447C447.568 300.999 447.736 301.191 448.288 301.191L451.864 301.191C456.688 301.191 457.312 302.367 457.768 303.279C457.984 303.687 458.224 303.783 458.632 303.567L459.88 302.943C460.312 302.727 460.456 302.463 460.264 302.031C459.448 300.327 458.104 298.479 452.032 298.479L450.136 298.479L450.136 294.831L459.256 294.831C459.808 294.831 460 294.639 460 294.087L460 292.791C460 292.239 459.808 292.047 459.256 292.047L448.288 292.047C447.736 292.047 447.568 292.239 447.568 292.791ZM456.88 287.848L456.88 288.016C456.88 289.192 457.264 289.552 458.416 289.552L458.632 289.552C459.808 289.552 460.168 289.192 460.168 288.016L460.168 287.848C460.168 286.672 459.808 286.312 458.632 286.312L458.416 286.312C457.264 286.312 456.88 286.672 456.88 287.848ZM442.96 265.929L442.96 267.321C442.96 268.281 442.96 268.473 443.68 268.785L451.648 272.409L443.68 276.369C442.96 276.705 442.96 276.993 442.96 277.953L442.96 279.369C442.96 279.969 443.32 280.017 443.776 279.777L455.008 273.969L459.184 276.057C459.664 276.297 460 276.249 460 275.649L460 274.017C460 273.153 459.88 272.937 459.28 272.673L443.776 265.521C443.32 265.329 442.96 265.329 442.96 265.929ZM457.408 253.842L457.408 254.946L448.288 254.946C447.736 254.946 447.568 255.138 447.568 255.69L447.568 263.586C447.568 264.138 447.736 264.306 448.288 264.306L451.792 264.306C455.704 264.306 456.832 265.05 457.408 265.794L457.408 266.322C457.408 266.874 457.6 267.042 458.176 267.042L462.592 267.042C463.144 267.042 463.336 266.874 463.336 266.322L463.336 265.098C463.336 264.546 463.144 264.354 462.592 264.354L460 264.354L460 255.81L462.592 255.81C463.144 255.81 463.336 255.594 463.336 255.042L463.336 253.842C463.336 253.29 463.144 253.098 462.592 253.098L458.176 253.098C457.6 253.098 457.408 253.29 457.408 253.842ZM451.984 261.618L450.136 261.618L450.136 257.73L457.408 257.73L457.408 262.602C456.376 262.026 454.816 261.618 451.984 261.618ZM447.568 239.487L447.568 240.543C447.568 241.143 447.712 241.311 448.192 241.575L454.408 245.007L448.168 248.487C447.688 248.751 447.568 248.943 447.568 249.543L447.568 250.503C447.568 251.175 447.76 251.319 448.36 251.319L459.256 251.319C459.856 251.319 460 251.175 460 250.575L460 249.495C460 248.943 459.832 248.775 459.256 248.775L454.984 248.775C454.024 248.775 452.656 248.991 451.336 249.255L451.336 249.159C452.608 248.727 453.184 248.463 454.048 247.959L456.928 246.279C457.408 246.015 457.504 245.823 457.504 245.367L457.504 244.695C457.504 244.191 457.384 244.047 456.952 243.783L454.024 242.103C453.208 241.599 452.56 241.287 451.36 240.879L451.36 240.783C452.632 241.071 453.976 241.287 454.912 241.287L459.256 241.287C459.856 241.287 460 241.143 460 240.543L460 239.415C460 238.863 459.832 238.671 459.256 238.671L448.36 238.671C447.76 238.671 447.568 238.815 447.568 239.487ZM447.568 226.128L447.568 227.424C447.568 227.976 447.736 228.168 448.288 228.168L456.88 228.168C457.048 228.816 457.216 229.632 457.216 230.64C457.216 232.392 456.448 233.256 454.84 233.256L448.288 233.256C447.736 233.256 447.568 233.424 447.568 233.976L447.568 235.296C447.568 235.848 447.736 236.04 448.288 236.04L454.936 236.04C457.96 236.04 459.76 234.456 459.76 231.024C459.76 229.848 459.592 228.912 459.424 228.168L460.552 228.168C462.256 228.168 463.144 229.032 463.144 230.712C463.144 232.008 462.712 232.728 461.92 233.232C461.416 233.592 461.344 233.856 461.632 234.432L462.136 235.344C462.424 235.92 462.808 235.992 463.336 235.656C464.752 234.792 465.64 233.256 465.64 230.664C465.64 226.896 463.552 225.384 460.408 225.384L448.288 225.384C447.736 225.384 447.568 225.576 447.568 226.128ZM447.904 221.72C448.216 222.488 448.504 222.656 449.272 222.656L464.536 222.656C465.088 222.656 465.28 222.464 465.28 221.912L465.28 220.592C465.28 220.04 465.088 219.872 464.536 219.872L459.928 219.872C460.096 219.224 460.36 218.336 460.36 217.352C460.36 213.728 458.56 212 455.344 212L452.056 212C448.984 212 447.208 213.608 447.208 217.064C447.208 219.296 447.544 220.736 447.904 221.72ZM452.128 214.784L455.248 214.784C456.976 214.784 457.816 215.648 457.816 217.544C457.816 218.48 457.6 219.32 457.456 219.872L450.328 219.872C450.16 219.872 450.088 219.824 450.016 219.632C449.848 219.032 449.752 218.36 449.752 217.472C449.752 215.72 450.568 214.784 452.128 214.784ZM447.568 201.005L447.568 210.053C447.568 210.605 447.736 210.797 448.288 210.797L449.392 210.797C449.944 210.797 450.136 210.605 450.136 210.053L450.136 206.909L459.256 206.909C459.808 206.909 460 206.717 460 206.165L460 204.869C460 204.317 459.808 204.125 459.256 204.125L450.136 204.125L450.136 201.005C450.136 200.453 449.944 200.261 449.392 200.261L448.288 200.261C447.736 200.261 447.568 200.453 447.568 201.005ZM452.128 199.086L455.44 199.086C458.488 199.086 460.36 197.43 460.36 193.782C460.36 190.878 459.208 189.222 457.168 188.43C456.568 188.19 456.304 188.382 456.088 188.934L455.776 190.014C455.584 190.59 455.68 190.854 456.256 191.07C457.288 191.454 457.912 192.294 457.912 193.686C457.912 195.414 457.048 196.302 455.56 196.302L452.008 196.302C450.496 196.302 449.656 195.414 449.656 193.686C449.656 192.27 450.256 191.454 451.264 191.07C451.84 190.854 452.008 190.59 451.768 190.014L451.432 188.958C451.216 188.406 450.952 188.238 450.352 188.43C448.552 189.03 447.208 190.71 447.208 193.566C447.208 197.334 449.08 199.086 452.128 199.086ZM459.112 175.624L454.912 177.712C453.928 178.216 453.28 178.72 452.92 179.44L448.432 175.84C447.88 175.408 447.568 175.576 447.568 176.32L447.568 177.496C447.568 178.312 447.568 178.552 448.12 178.936L452.368 182.176L452.368 182.392L452.368 183.496L448.312 183.496C447.736 183.496 447.568 183.688 447.568 184.288L447.568 185.512C447.568 186.112 447.736 186.28 448.312 186.28L459.232 186.28C459.808 186.28 460 186.112 460 185.512L460 184.288C460 183.688 459.808 183.496 459.232 183.496L454.96 183.496L454.96 181.984C454.96 180.976 455.296 180.472 456.136 180.088L459.328 178.6C459.904 178.312 460 178.144 460 177.304L460 176.104C460 175.384 459.76 175.312 459.112 175.624ZM449.704 173.98C450.256 174.268 450.544 174.1 450.784 173.572L451.192 172.612C451.408 172.06 451.336 171.916 450.832 171.58C450.064 171.076 449.68 170.26 449.68 169.06C449.68 167.26 450.544 166.66 452.056 166.66L452.728 166.66C452.704 167.068 452.608 168.028 452.608 168.964C452.608 172.804 453.592 174.412 456.472 174.412C458.968 174.412 460.36 173.308 460.36 169.06C460.36 167.092 460.12 165.628 459.736 164.74C459.448 164.068 459.208 163.876 458.368 163.876L452.152 163.876C449.32 163.876 447.208 165.076 447.208 169.012C447.208 171.508 448.144 173.164 449.704 173.98ZM455.008 166.66L457.528 166.66C457.744 166.66 457.792 166.732 457.864 166.924C457.96 167.356 458.056 168.1 458.056 169.324C458.056 171.196 457.432 171.58 456.448 171.58C455.464 171.58 454.888 171.1 454.888 169.276C454.888 168.34 454.984 167.164 455.008 166.66ZM447.568 152.127L447.568 157.527C447.568 160.167 449.176 161.823 451.768 161.823C453.664 161.823 455.008 160.935 455.608 159.423L459.112 161.703C459.736 162.087 460 162.063 460 161.151L460 159.975C460 159.183 459.952 158.967 459.352 158.631L455.992 156.615L455.992 154.167L459.256 154.167C459.808 154.167 460 153.975 460 153.423L460 152.127C460 151.575 459.808 151.383 459.256 151.383L448.312 151.383C447.736 151.383 447.568 151.575 447.568 152.127ZM450.064 157.167L450.064 154.167L453.472 154.167L453.472 157.167C453.472 158.247 452.776 158.919 451.768 158.919C450.784 158.919 450.064 158.247 450.064 157.167Z" fill="#316197"/>
<path d="M10.568 312.816L10.568 314.112C10.568 314.664 10.736 314.856 11.288 314.856L19.88 314.856C20.048 315.504 20.216 316.32 20.216 317.328C20.216 319.08 19.448 319.944 17.84 319.944L11.288 319.944C10.736 319.944 10.568 320.112 10.568 320.664L10.568 321.984C10.568 322.536 10.736 322.728 11.288 322.728L17.936 322.728C20.96 322.728 22.76 321.144 22.76 317.712C22.76 316.536 22.592 315.6 22.424 314.856L23.552 314.856C25.256 314.856 26.144 315.72 26.144 317.4C26.144 318.696 25.712 319.416 24.92 319.92C24.416 320.28 24.344 320.544 24.632 321.12L25.136 322.032C25.424 322.608 25.808 322.68 26.336 322.344C27.752 321.48 28.64 319.944 28.64 317.352C28.64 313.584 26.552 312.072 23.408 312.072L11.288 312.072C10.736 312.072 10.568 312.264 10.568 312.816ZM10.568 299.791L10.568 307.447C10.568 307.999 10.736 308.191 11.288 308.191L14.864 308.191C19.688 308.191 20.312 309.367 20.768 310.279C20.984 310.687 21.224 310.783 21.632 310.567L22.88 309.943C23.312 309.727 23.456 309.463 23.264 309.031C22.448 307.327 21.104 305.479 15.032 305.479L13.136 305.479L13.136 301.831L22.256 301.831C22.808 301.831 23 301.639 23 301.087L23 299.791C23 299.239 22.808 299.047 22.256 299.047L11.288 299.047C10.736 299.047 10.568 299.239 10.568 299.791ZM19.88 294.848L19.88 295.016C19.88 296.192 20.264 296.552 21.416 296.552L21.632 296.552C22.808 296.552 23.168 296.192 23.168 295.016L23.168 294.848C23.168 293.672 22.808 293.312 21.632 293.312L21.416 293.312C20.264 293.312 19.88 293.672 19.88 294.848ZM22.184 272.353L16.328 275.401C14.984 276.097 14.096 276.865 13.592 277.993L6.752 272.641C6.344 272.329 5.96 272.473 5.96 273.025L5.96 274.561C5.96 275.521 6.056 275.761 6.632 276.193L12.992 281.017L12.992 281.329L12.992 282.289L6.776 282.289C6.176 282.289 5.96 282.505 5.96 283.105L5.96 284.473C5.96 285.097 6.176 285.313 6.776 285.313L22.184 285.313C22.784 285.313 23 285.097 23 284.473L23 283.105C23 282.505 22.784 282.289 22.184 282.289L15.728 282.289L15.728 281.065C15.728 279.409 16.112 278.857 17.408 278.209L22.28 275.785C22.88 275.497 23 275.185 23 274.153L23 272.761C23 272.161 22.64 272.113 22.184 272.353ZM15.008 271.477L18.56 271.477C21.536 271.477 23.36 269.509 23.36 265.957C23.36 262.357 21.536 260.413 18.56 260.413L15.008 260.413C12.032 260.413 10.208 262.357 10.208 265.957C10.208 269.509 12.032 271.477 15.008 271.477ZM15.008 263.197L18.56 263.197C20 263.197 20.84 264.181 20.84 265.957C20.84 267.709 20 268.693 18.56 268.693L15.008 268.693C13.544 268.693 12.728 267.709 12.728 265.957C12.728 264.181 13.544 263.197 15.008 263.197ZM10.568 246.206L10.568 247.262C10.568 247.862 10.712 248.03 11.192 248.294L17.408 251.726L11.168 255.206C10.688 255.47 10.568 255.662 10.568 256.262L10.568 257.222C10.568 257.894 10.76 258.038 11.36 258.038L22.256 258.038C22.856 258.038 23 257.894 23 257.294L23 256.214C23 255.662 22.832 255.494 22.256 255.494L17.984 255.494C17.024 255.494 15.656 255.71 14.336 255.974L14.336 255.878C15.608 255.446 16.184 255.182 17.048 254.678L19.928 252.998C20.408 252.734 20.504 252.542 20.504 252.086L20.504 251.414C20.504 250.91 20.384 250.766 19.952 250.502L17.024 248.822C16.208 248.318 15.56 248.006 14.36 247.598L14.36 247.502C15.632 247.79 16.976 248.006 17.912 248.006L22.256 248.006C22.856 248.006 23 247.862 23 247.262L23 246.134C23 245.582 22.832 245.39 22.256 245.39L11.36 245.39C10.76 245.39 10.568 245.534 10.568 246.206ZM10.568 230.807L10.568 231.863C10.568 232.463 10.712 232.631 11.192 232.895L17.408 236.327L11.168 239.807C10.688 240.071 10.568 240.263 10.568 240.863L10.568 241.823C10.568 242.495 10.76 242.639 11.36 242.639L22.256 242.639C22.856 242.639 23 242.495 23 241.895L23 240.815C23 240.263 22.832 240.095 22.256 240.095L17.984 240.095C17.024 240.095 15.656 240.311 14.336 240.575L14.336 240.479C15.608 240.047 16.184 239.783 17.048 239.279L19.928 237.599C20.408 237.335 20.504 237.143 20.504 236.687L20.504 236.015C20.504 235.511 20.384 235.367 19.952 235.103L17.024 233.423C16.208 232.919 15.56 232.607 14.36 232.199L14.36 232.103C15.632 232.391 16.976 232.607 17.912 232.607L22.256 232.607C22.856 232.607 23 232.463 23 231.863L23 230.735C23 230.183 22.832 229.991 22.256 229.991L11.36 229.991C10.76 229.991 10.568 230.135 10.568 230.807ZM10.568 217.449L10.568 218.745C10.568 219.297 10.736 219.489 11.288 219.489L19.88 219.489C20.048 220.137 20.216 220.953 20.216 221.961C20.216 223.713 19.448 224.577 17.84 224.577L11.288 224.577C10.736 224.577 10.568 224.745 10.568 225.297L10.568 226.617C10.568 227.169 10.736 227.361 11.288 227.361L17.936 227.361C20.96 227.361 22.76 225.777 22.76 222.345C22.76 221.169 22.592 220.233 22.424 219.489L23.552 219.489C25.256 219.489 26.144 220.353 26.144 222.033C26.144 223.329 25.712 224.049 24.92 224.553C24.416 224.913 24.344 225.177 24.632 225.753L25.136 226.665C25.424 227.241 25.808 227.313 26.336 226.977C27.752 226.113 28.64 224.577 28.64 221.985C28.64 218.217 26.552 216.705 23.408 216.705L11.288 216.705C10.736 216.705 10.568 216.897 10.568 217.449ZM10.568 204.064L10.568 205.384C10.568 205.936 10.736 206.128 11.288 206.128L15.368 206.128L15.368 211.144L11.288 211.144C10.736 211.144 10.568 211.336 10.568 211.888L10.568 213.208C10.568 213.76 10.736 213.928 11.288 213.928L22.256 213.928C22.808 213.928 23 213.76 23 213.208L23 211.888C23 211.336 22.808 211.144 22.256 211.144L17.96 211.144L17.96 206.128L22.256 206.128C22.808 206.128 23 205.936 23 205.384L23 204.064C23 203.512 22.808 203.344 22.256 203.344L11.288 203.344C10.736 203.344 10.568 203.512 10.568 204.064ZM12.704 200.785C13.256 201.073 13.544 200.905 13.784 200.377L14.192 199.417C14.408 198.865 14.336 198.721 13.832 198.385C13.064 197.881 12.68 197.065 12.68 195.865C12.68 194.065 13.544 193.465 15.056 193.465L15.728 193.465C15.704 193.873 15.608 194.833 15.608 195.769C15.608 199.609 16.592 201.217 19.472 201.217C21.968 201.217 23.36 200.113 23.36 195.865C23.36 193.897 23.12 192.433 22.736 191.545C22.448 190.873 22.208 190.681 21.368 190.681L15.152 190.681C12.32 190.681 10.208 191.881 10.208 195.817C10.208 198.313 11.144 199.969 12.704 200.785ZM18.008 193.465L20.528 193.465C20.744 193.465 20.792 193.537 20.864 193.729C20.96 194.161 21.056 194.905 21.056 196.129C21.056 198.001 20.432 198.385 19.448 198.385C18.464 198.385 17.888 197.905 17.888 196.081C17.888 195.145 17.984 193.969 18.008 193.465ZM10.904 187.236C11.216 188.004 11.504 188.172 12.272 188.172L27.536 188.172C28.088 188.172 28.28 187.98 28.28 187.428L28.28 186.108C28.28 185.556 28.088 185.388 27.536 185.388L22.928 185.388C23.096 184.74 23.36 183.852 23.36 182.868C23.36 179.244 21.56 177.516 18.344 177.516L15.056 177.516C11.984 177.516 10.208 179.124 10.208 182.58C10.208 184.812 10.544 186.252 10.904 187.236ZM15.128 180.3L18.248 180.3C19.976 180.3 20.816 181.164 20.816 183.06C20.816 183.996 20.6 184.836 20.456 185.388L13.328 185.388C13.16 185.388 13.088 185.34 13.016 185.148C12.848 184.548 12.752 183.876 12.752 182.988C12.752 181.236 13.568 180.3 15.128 180.3ZM15.008 175.524L18.56 175.524C21.536 175.524 23.36 173.556 23.36 170.004C23.36 166.404 21.536 164.46 18.56 164.46L15.008 164.46C12.032 164.46 10.208 166.404 10.208 170.004C10.208 173.556 12.032 175.524 15.008 175.524ZM15.008 167.244L18.56 167.244C20 167.244 20.84 168.228 20.84 170.004C20.84 171.756 20 172.74 18.56 172.74L15.008 172.74C13.544 172.74 12.728 171.756 12.728 170.004C12.728 168.228 13.544 167.244 15.008 167.244ZM14 151.933C11.96 151.933 10.568 153.229 10.568 155.605L10.568 161.341C10.568 161.917 10.736 162.085 11.312 162.085L22.256 162.085C22.808 162.085 23 161.917 23 161.341L23 155.269C23 152.917 21.608 151.453 19.472 151.453C18.152 151.453 17.12 152.029 16.52 153.085C15.944 152.293 15.08 151.933 14 151.933ZM15.512 156.061L15.512 159.301L12.92 159.301L12.92 156.085C12.92 155.197 13.424 154.717 14.216 154.717C14.984 154.717 15.512 155.221 15.512 156.061ZM20.648 155.821L20.648 159.301L17.792 159.301L17.792 155.845C17.792 154.909 18.344 154.357 19.184 154.357C20.072 154.357 20.648 154.909 20.648 155.821Z" fill="#316197"/>
<path d="M156.136 10.568L147.112 10.568C146.56 10.568 146.392 10.736 146.392 11.288V22.256C146.392 22.808 146.56 23 147.112 23H148.432C148.984 23 149.176 22.808 149.176 22.256V13.136L154.096 13.136V22.256C154.096 22.808 154.288 23 154.84 23L156.136 23C156.712 23 156.88 22.808 156.88 22.256V11.288C156.88 10.736 156.712 10.568 156.136 10.568ZM159.226 15.392V18.224C159.226 21.176 160.81 23.36 164.746 23.36C167.458 23.36 169.066 22.472 169.93 21.056C170.266 20.528 170.194 20.12 169.642 19.856L168.802 19.4C168.226 19.088 167.962 19.16 167.578 19.688C167.074 20.48 166.162 20.96 164.746 20.96C162.994 20.96 162.01 20.12 162.01 18.56V17.672H169.258C170.098 17.672 170.338 17.264 170.338 16.64V15.176C170.338 12.416 168.61 10.208 164.794 10.208C161.17 10.208 159.226 12.056 159.226 15.392ZM167.554 15.008V15.536H162.01V15.008C162.01 13.448 162.994 12.56 164.794 12.56C166.618 12.56 167.554 13.448 167.554 15.008ZM173.436 10.904C172.668 11.216 172.5 11.504 172.5 12.272V27.536C172.5 28.088 172.692 28.28 173.244 28.28H174.564C175.116 28.28 175.284 28.088 175.284 27.536V22.928C175.932 23.096 176.82 23.36 177.804 23.36C181.428 23.36 183.156 21.56 183.156 18.344V15.056C183.156 11.984 181.548 10.208 178.092 10.208C175.86 10.208 174.42 10.544 173.436 10.904ZM180.372 15.128V18.248C180.372 19.976 179.508 20.816 177.612 20.816C176.676 20.816 175.836 20.6 175.284 20.456V13.328C175.284 13.16 175.332 13.088 175.524 13.016C176.124 12.848 176.796 12.752 177.684 12.752C179.436 12.752 180.372 13.568 180.372 15.128ZM186.972 19.88H186.804C185.628 19.88 185.268 20.264 185.268 21.416V21.632C185.268 22.808 185.628 23.168 186.804 23.168H186.972C188.148 23.168 188.508 22.808 188.508 21.632V21.416C188.508 20.264 188.148 19.88 186.972 19.88ZM196.028 11.84V17.096C196.028 20.96 198.476 23.36 202.892 23.36C206.444 23.36 208.532 21.92 209.444 19.328C209.636 18.752 209.492 18.488 208.916 18.272L207.62 17.816C207.044 17.6 206.804 17.72 206.564 18.32C206.036 19.784 204.908 20.552 202.892 20.552C200.42 20.552 199.052 19.328 199.052 17.12V11.816C199.052 9.608 200.42 8.408 202.892 8.408C204.884 8.408 206.036 9.152 206.564 10.616C206.78 11.216 207.02 11.288 207.596 11.12L208.916 10.664C209.492 10.448 209.636 10.184 209.42 9.608C208.508 7.016 206.42 5.6 202.892 5.6C198.476 5.6 196.028 8 196.028 11.84ZM211.163 15.392V18.224C211.163 21.176 212.747 23.36 216.683 23.36C219.395 23.36 221.003 22.472 221.867 21.056C222.203 20.528 222.131 20.12 221.579 19.856L220.739 19.4C220.163 19.088 219.899 19.16 219.515 19.688C219.011 20.48 218.099 20.96 216.683 20.96C214.931 20.96 213.947 20.12 213.947 18.56V17.672H221.195C222.035 17.672 222.275 17.264 222.275 16.64V15.176C222.275 12.416 220.547 10.208 216.731 10.208C213.107 10.208 211.163 12.056 211.163 15.392ZM219.491 15.008V15.536L213.947 15.536V15.008C213.947 13.448 214.931 12.56 216.731 12.56C218.555 12.56 219.491 13.448 219.491 15.008ZM234.638 14C234.638 11.96 233.342 10.568 230.966 10.568L225.23 10.568C224.654 10.568 224.486 10.736 224.486 11.312V22.256C224.486 22.808 224.654 23 225.23 23H231.302C233.654 23 235.118 21.608 235.118 19.472C235.118 18.152 234.542 17.12 233.486 16.52C234.278 15.944 234.638 15.08 234.638 14ZM230.51 15.512L227.27 15.512V12.92L230.486 12.92C231.374 12.92 231.854 13.424 231.854 14.216C231.854 14.984 231.35 15.512 230.51 15.512ZM230.75 20.648H227.27V17.792H230.726C231.662 17.792 232.214 18.344 232.214 19.184C232.214 20.072 231.662 20.648 230.75 20.648ZM236.898 15.392V18.224C236.898 21.176 238.482 23.36 242.418 23.36C245.13 23.36 246.738 22.472 247.602 21.056C247.938 20.528 247.866 20.12 247.314 19.856L246.474 19.4C245.898 19.088 245.634 19.16 245.25 19.688C244.746 20.48 243.834 20.96 242.418 20.96C240.666 20.96 239.682 20.12 239.682 18.56V17.672L246.93 17.672C247.77 17.672 248.01 17.264 248.01 16.64V15.176C248.01 12.416 246.282 10.208 242.466 10.208C238.842 10.208 236.898 12.056 236.898 15.392ZM245.226 15.008V15.536H239.682V15.008C239.682 13.448 240.666 12.56 242.466 12.56C244.29 12.56 245.226 13.448 245.226 15.008ZM251.108 10.904C250.34 11.216 250.172 11.504 250.172 12.272V27.536C250.172 28.088 250.364 28.28 250.916 28.28H252.236C252.788 28.28 252.956 28.088 252.956 27.536V22.928C253.604 23.096 254.492 23.36 255.476 23.36C259.1 23.36 260.828 21.56 260.828 18.344V15.056C260.828 11.984 259.22 10.208 255.764 10.208C253.532 10.208 252.092 10.544 251.108 10.904ZM258.044 15.128V18.248C258.044 19.976 257.18 20.816 255.284 20.816C254.348 20.816 253.508 20.6 252.956 20.456V13.328C252.956 13.16 253.004 13.088 253.196 13.016C253.796 12.848 254.468 12.752 255.356 12.752C257.108 12.752 258.044 13.568 258.044 15.128ZM273.092 10.568L271.772 10.568C271.22 10.568 271.028 10.736 271.028 11.288V15.368H266.012V11.288C266.012 10.736 265.82 10.568 265.268 10.568H263.948C263.396 10.568 263.228 10.736 263.228 11.288V22.256C263.228 22.808 263.396 23 263.948 23H265.268C265.82 23 266.012 22.808 266.012 22.256V17.96L271.028 17.96V22.256C271.028 22.808 271.22 23 271.772 23H273.092C273.644 23 273.812 22.808 273.812 22.256V11.288C273.812 10.736 273.644 10.568 273.092 10.568ZM282.539 14.12H279.371V11.288C279.371 10.736 279.179 10.568 278.627 10.568H277.307C276.755 10.568 276.587 10.736 276.587 11.288V22.256C276.587 22.808 276.755 23 277.307 23H282.539C285.347 23 287.075 21.32 287.075 18.536C287.075 15.776 285.347 14.12 282.539 14.12ZM290.267 10.568H288.971C288.419 10.568 288.227 10.736 288.227 11.288V22.256C288.227 22.808 288.419 23 288.971 23H290.267C290.819 23 291.011 22.808 291.011 22.256V11.288C291.011 10.736 290.819 10.568 290.267 10.568ZM282.203 20.504H279.371V16.64H282.203C283.427 16.64 284.171 17.384 284.171 18.536C284.171 19.688 283.427 20.504 282.203 20.504ZM303.006 6.488C303.15 6.128 303.054 5.984 302.694 5.816L301.59 5.408C301.254 5.312 301.11 5.36 300.966 5.696C300.702 6.488 300.102 6.944 299.286 6.944C298.47 6.944 297.87 6.488 297.606 5.696C297.462 5.36 297.294 5.312 296.862 5.432L295.926 5.816C295.542 5.96 295.47 6.128 295.59 6.488C296.118 8.048 297.486 8.96 299.286 8.96C301.11 8.96 302.478 8.048 303.006 6.488ZM295.83 10.568H294.51C293.958 10.568 293.79 10.736 293.79 11.288V22.256C293.79 22.808 293.958 23 294.51 23H295.83C296.166 23 296.358 22.904 296.574 22.616L300.774 16.64C301.35 15.776 301.758 15.176 302.166 14.216H302.238C301.95 15.224 301.71 16.16 301.71 17.744V22.256C301.71 22.808 301.902 23 302.454 23H303.774C304.326 23 304.494 22.808 304.494 22.256V11.288C304.494 10.736 304.326 10.568 303.774 10.568H302.454C302.118 10.568 301.926 10.664 301.734 10.928L297.486 16.952C296.982 17.696 296.622 18.224 296.142 19.376H296.07C296.406 18.176 296.574 17.24 296.574 15.872V11.288C296.574 10.736 296.382 10.568 295.83 10.568Z" fill="#316197"/>
<rect x="41" y="31" width="393" height="430" fill="white"/>
<g filter="url(#filter0_d_3_30)">
<rect x="180" y="52" width="100" height="260" fill="#EDEDED"/>
</g>
<g filter="url(#filter1_d_3_30)">
<rect x="323" y="52" width="100" height="59" fill="#EDEDED"/>
</g>
<g filter="url(#filter2_d_3_30)">
<rect x="180" y="373" width="100" height="40" fill="#EDEDED"/>
</g>
<g filter="url(#filter3_d_3_30)">
<rect x="323" y="133" width="100" height="179" fill="#EDEDED"/>
</g>
<rect x="41" y="343" width="268" height="14" fill="#C7C6C6"/>
<rect x="301.213" y="342" width="159.761" height="14" transform="rotate(26.3446 301.213 342)" fill="#C7C6C6"/>
<rect x="157" y="31" width="14" height="314" fill="#C7C6C6"/>
<rect x="295" y="31" width="14" height="314" fill="#C7C6C6"/>
<g filter="url(#filter4_d_3_30)">
<rect x="54" y="52" width="78" height="260" fill="#EDEDED"/>
</g>
<path d="M186.1 156.68C185.902 157.186 186.056 157.428 186.584 157.626L187.772 158.066C188.3 158.242 188.498 158.132 188.74 157.582C189.312 156.284 190.214 155.624 191.776 155.624C193.316 155.624 194.328 156.746 194.328 158.088C194.328 160.266 192.348 160.948 190.324 161.74C188.168 162.598 185.99 163.61 185.99 166.602V168.252C185.99 168.802 186.188 169 186.738 169H196.22C196.77 169 196.968 168.802 196.968 168.252V167.174C196.968 166.624 196.77 166.426 196.22 166.426H188.872V166.03C188.872 165.018 190.17 164.622 191.094 164.27C195.516 162.51 197.232 161.256 197.232 157.956C197.232 155.36 195.23 153.05 191.886 153.05C188.718 153.05 187.002 154.48 186.1 156.68ZM209.06 153.38H201.382C200.546 153.38 200.26 153.644 200.172 154.458L199.512 160.86C199.446 161.476 199.644 161.74 200.304 161.74H204.946C206.486 161.74 207.542 162.664 207.542 164.138C207.542 165.81 206.442 166.756 204.902 166.756C203.01 166.756 202.064 166.096 201.58 164.82C201.382 164.27 201.162 164.16 200.634 164.358L199.424 164.776C198.896 164.974 198.764 165.216 198.962 165.744C199.798 168.054 201.624 169.33 204.924 169.33C208.444 169.33 210.446 166.954 210.446 164.138C210.446 161.432 208.73 159.188 205.1 159.188H202.438L202.768 155.954H209.06C209.632 155.954 209.808 155.756 209.808 155.206V154.128C209.808 153.578 209.632 153.38 209.06 153.38ZM222.166 153.38H214.488C213.652 153.38 213.366 153.644 213.278 154.458L212.618 160.86C212.552 161.476 212.75 161.74 213.41 161.74H218.052C219.592 161.74 220.648 162.664 220.648 164.138C220.648 165.81 219.548 166.756 218.008 166.756C216.116 166.756 215.17 166.096 214.686 164.82C214.488 164.27 214.268 164.16 213.74 164.358L212.53 164.776C212.002 164.974 211.87 165.216 212.068 165.744C212.904 168.054 214.73 169.33 218.03 169.33C221.55 169.33 223.552 166.954 223.552 164.138C223.552 161.432 221.836 159.188 218.206 159.188H215.544L215.874 155.954H222.166C222.738 155.954 222.914 155.756 222.914 155.206V154.128C222.914 153.578 222.738 153.38 222.166 153.38ZM234.941 160.75C234.941 158.88 233.753 157.604 231.575 157.604H226.317C225.789 157.604 225.635 157.758 225.635 158.286V168.318C225.635 168.824 225.789 169 226.317 169H231.883C234.039 169 235.381 167.724 235.381 165.766C235.381 164.556 234.853 163.61 233.885 163.06C234.611 162.532 234.941 161.74 234.941 160.75ZM231.157 162.136H228.187V159.76H231.135C231.949 159.76 232.389 160.222 232.389 160.948C232.389 161.652 231.927 162.136 231.157 162.136ZM231.377 166.844H228.187V164.226H231.355C232.213 164.226 232.719 164.732 232.719 165.502C232.719 166.316 232.213 166.844 231.377 166.844ZM194.812 178.83H193.558C193.008 178.83 192.81 179.028 192.81 179.578V180.7H191.666C187.794 180.7 185.726 182.812 185.726 186.288V187.982C185.726 191.458 187.794 193.57 191.666 193.57H192.81V194.692C192.81 195.242 193.008 195.44 193.558 195.44H194.812C195.384 195.44 195.582 195.242 195.582 194.692V193.57H196.726C200.598 193.57 202.666 191.458 202.666 187.982V186.288C202.666 182.812 200.598 180.7 196.726 180.7H195.582V179.578C195.582 179.028 195.384 178.83 194.812 178.83ZM191.666 183.186H192.81V191.084H191.666C189.576 191.084 188.498 190.05 188.498 188.092V186.178C188.498 184.22 189.576 183.186 191.666 183.186ZM199.894 186.178V188.092C199.894 190.05 198.816 191.084 196.726 191.084H195.582V183.186H196.726C198.816 183.186 199.894 184.22 199.894 186.178ZM213.056 183.604H206.038C205.532 183.604 205.356 183.758 205.356 184.264V187.542C205.356 191.964 204.278 192.536 203.442 192.954C203.068 193.152 202.98 193.372 203.178 193.746L203.75 194.89C203.948 195.286 204.19 195.418 204.586 195.242C206.148 194.494 207.842 193.262 207.842 187.696V185.958H211.186V194.318C211.186 194.824 211.362 195 211.868 195H213.056C213.562 195 213.738 194.824 213.738 194.318V184.264C213.738 183.758 213.562 183.604 213.056 183.604ZM216.092 185.562C215.828 186.068 215.982 186.332 216.466 186.552L217.346 186.926C217.852 187.124 217.984 187.058 218.292 186.596C218.754 185.892 219.502 185.54 220.602 185.54C222.252 185.54 222.802 186.332 222.802 187.718V188.334C222.428 188.312 221.548 188.224 220.69 188.224C217.17 188.224 215.696 189.126 215.696 191.766C215.696 194.054 216.708 195.33 220.602 195.33C222.406 195.33 223.748 195.11 224.562 194.758C225.178 194.494 225.354 194.274 225.354 193.504V187.806C225.354 185.21 224.254 183.274 220.646 183.274C218.358 183.274 216.84 184.132 216.092 185.562ZM222.802 190.424V192.734C222.802 192.932 222.736 192.976 222.56 193.042C222.164 193.13 221.482 193.218 220.36 193.218C218.644 193.218 218.292 192.646 218.292 191.744C218.292 190.842 218.732 190.314 220.404 190.314C221.262 190.314 222.34 190.402 222.802 190.424ZM234.892 183.604H228.358C227.852 183.604 227.698 183.758 227.698 184.264V194.318C227.698 194.824 227.852 195 228.358 195H229.568C230.074 195 230.25 194.824 230.25 194.318V185.958H234.892C235.398 185.958 235.574 185.782 235.574 185.276V184.264C235.574 183.758 235.398 183.604 234.892 183.604ZM247.976 183.604H247.008C246.458 183.604 246.304 183.736 246.062 184.176L242.916 189.874L239.726 184.154C239.484 183.714 239.308 183.604 238.758 183.604H237.878C237.262 183.604 237.13 183.78 237.13 184.33V194.318C237.13 194.868 237.262 195 237.812 195H238.802C239.308 195 239.462 194.846 239.462 194.318V190.402C239.462 189.522 239.264 188.268 239.022 187.058H239.11C239.506 188.224 239.748 188.752 240.21 189.544L241.75 192.184C241.992 192.624 242.168 192.712 242.586 192.712H243.202C243.664 192.712 243.796 192.602 244.038 192.206L245.578 189.522C246.04 188.774 246.326 188.18 246.7 187.08H246.788C246.524 188.246 246.326 189.478 246.326 190.336V194.318C246.326 194.868 246.458 195 247.008 195H248.042C248.548 195 248.724 194.846 248.724 194.318V184.33C248.724 183.78 248.592 183.604 247.976 183.604ZM251.047 185.562C250.783 186.068 250.937 186.332 251.421 186.552L252.301 186.926C252.807 187.124 252.939 187.058 253.247 186.596C253.709 185.892 254.457 185.54 255.557 185.54C257.207 185.54 257.757 186.332 257.757 187.718V188.334C257.383 188.312 256.503 188.224 255.645 188.224C252.125 188.224 250.651 189.126 250.651 191.766C250.651 194.054 251.663 195.33 255.557 195.33C257.361 195.33 258.703 195.11 259.517 194.758C260.133 194.494 260.309 194.274 260.309 193.504V187.806C260.309 185.21 259.209 183.274 255.601 183.274C253.313 183.274 251.795 184.132 251.047 185.562ZM257.757 190.424V192.734C257.757 192.932 257.691 192.976 257.515 193.042C257.119 193.13 256.437 193.218 255.315 193.218C253.599 193.218 253.247 192.646 253.247 191.744C253.247 190.842 253.687 190.314 255.359 190.314C256.217 190.314 257.295 190.402 257.757 190.424ZM271.695 183.604H270.485C269.979 183.604 269.803 183.758 269.803 184.264V188.004H265.205V184.264C265.205 183.758 265.029 183.604 264.523 183.604H263.313C262.807 183.604 262.653 183.758 262.653 184.264V194.318C262.653 194.824 262.807 195 263.313 195H264.523C265.029 195 265.205 194.824 265.205 194.318V190.38H269.803V194.318C269.803 194.824 269.979 195 270.485 195H271.695C272.201 195 272.355 194.824 272.355 194.318V184.264C272.355 183.758 272.201 183.604 271.695 183.604ZM198.2 205.38H189.444C188.872 205.38 188.696 205.578 188.696 206.128V210.682C188.696 216.358 187.618 217.788 186.672 218.426H186.166C185.594 218.426 185.418 218.624 185.418 219.174V223.618C185.418 224.168 185.594 224.366 186.166 224.366H187.354C187.926 224.366 188.102 224.168 188.102 223.618V221H198.156V223.618C198.156 224.168 198.354 224.366 198.904 224.366H200.114C200.686 224.366 200.862 224.168 200.862 223.618V219.174C200.862 218.624 200.686 218.426 200.114 218.426H198.97V206.128C198.97 205.578 198.772 205.38 198.2 205.38ZM191.358 207.954H196.198V218.426H189.884C190.698 217.15 191.358 215.082 191.358 210.66V207.954ZM204.41 209.604H203.2C202.694 209.604 202.54 209.758 202.54 210.264V220.318C202.54 220.824 202.694 221 203.2 221H204.41C204.718 221 204.894 220.912 205.092 220.648L208.942 215.17C209.47 214.378 209.844 213.828 210.218 212.948H210.284C210.02 213.872 209.8 214.73 209.8 216.182V220.318C209.8 220.824 209.976 221 210.482 221H211.692C212.198 221 212.352 220.824 212.352 220.318V210.264C212.352 209.758 212.198 209.604 211.692 209.604H210.482C210.174 209.604 209.998 209.692 209.822 209.934L205.928 215.456C205.466 216.138 205.136 216.622 204.696 217.678H204.63C204.938 216.578 205.092 215.72 205.092 214.466V210.264C205.092 209.758 204.916 209.604 204.41 209.604ZM214.519 213.784V216.82C214.519 219.614 216.037 221.33 219.381 221.33C222.043 221.33 223.561 220.274 224.287 218.404C224.507 217.854 224.331 217.612 223.825 217.414L222.835 217.128C222.307 216.952 222.065 217.04 221.867 217.568C221.515 218.514 220.745 219.086 219.469 219.086C217.885 219.086 217.071 218.294 217.071 216.93V213.674C217.071 212.288 217.885 211.518 219.469 211.518C220.767 211.518 221.515 212.068 221.867 212.992C222.065 213.52 222.307 213.674 222.835 213.454L223.803 213.146C224.309 212.948 224.463 212.706 224.287 212.156C223.737 210.506 222.197 209.274 219.579 209.274C216.125 209.274 214.519 210.99 214.519 213.784ZM236.026 220.186L234.112 216.336C233.65 215.434 233.188 214.84 232.528 214.51L235.828 210.396C236.224 209.89 236.07 209.604 235.388 209.604H234.31C233.562 209.604 233.342 209.604 232.99 210.11L230.02 214.004H229.822H228.81V210.286C228.81 209.758 228.634 209.604 228.084 209.604H226.962C226.412 209.604 226.258 209.758 226.258 210.286V220.296C226.258 220.824 226.412 221 226.962 221H228.084C228.634 221 228.81 220.824 228.81 220.296V216.38H230.196C231.12 216.38 231.582 216.688 231.934 217.458L233.298 220.384C233.562 220.912 233.716 221 234.486 221H235.586C236.246 221 236.312 220.78 236.026 220.186ZM237.25 213.674V216.93C237.25 219.658 239.054 221.33 242.31 221.33C245.61 221.33 247.392 219.658 247.392 216.93V213.674C247.392 210.946 245.61 209.274 242.31 209.274C239.054 209.274 237.25 210.946 237.25 213.674ZM244.84 213.674V216.93C244.84 218.25 243.938 219.02 242.31 219.02C240.704 219.02 239.802 218.25 239.802 216.93V213.674C239.802 212.332 240.704 211.584 242.31 211.584C243.938 211.584 244.84 212.332 244.84 213.674ZM258.611 209.604H257.401C256.895 209.604 256.719 209.758 256.719 210.264V214.004H252.121V210.264C252.121 209.758 251.945 209.604 251.439 209.604H250.229C249.723 209.604 249.569 209.758 249.569 210.264V220.318C249.569 220.824 249.723 221 250.229 221H251.439C251.945 221 252.121 220.824 252.121 220.318V216.38H256.719V220.318C256.719 220.824 256.895 221 257.401 221H258.611C259.117 221 259.271 220.824 259.271 220.318V210.264C259.271 209.758 259.117 209.604 258.611 209.604ZM269.801 209.604H261.507C261.001 209.604 260.825 209.758 260.825 210.264V211.276C260.825 211.782 261.001 211.958 261.507 211.958H264.389V220.318C264.389 220.824 264.565 221 265.071 221H266.259C266.765 221 266.941 220.824 266.941 220.318V211.958H269.801C270.307 211.958 270.483 211.782 270.483 211.276V210.264C270.483 209.758 270.307 209.604 269.801 209.604ZM272.219 223.002L273.561 219.086C273.759 218.558 273.561 218.294 272.879 218.294H271.889C271.295 218.294 271.075 218.47 270.987 219.086L270.437 223.178C270.393 223.574 270.481 223.684 270.899 223.684H271.383C271.889 223.684 272.043 223.486 272.219 223.002ZM196.396 231.38H186.056C185.484 231.38 185.308 231.578 185.308 232.128V233.206C185.308 233.756 185.484 233.954 186.056 233.954H189.84L189.84 246.252C189.84 246.802 190.038 247 190.588 247H191.864C192.414 247 192.612 246.802 192.612 246.252L192.612 233.954H196.396C196.946 233.954 197.144 233.756 197.144 233.206V232.128C197.144 231.578 196.946 231.38 196.396 231.38ZM211.915 244.426H210.815V232.128C210.815 231.578 210.617 231.38 210.045 231.38H208.791C208.241 231.38 208.043 231.578 208.043 232.128V244.426H201.751V232.128C201.751 231.578 201.553 231.38 201.003 231.38H199.749C199.177 231.38 198.979 231.578 198.979 232.128L198.979 246.252C198.979 246.802 199.177 247 199.749 247H210.001L210.001 249.618C210.001 250.168 210.199 250.366 210.749 250.366H211.915C212.465 250.366 212.663 250.168 212.663 249.618L212.663 245.174C212.663 244.624 212.465 244.426 211.915 244.426Z" fill="#316197"/>
<path d="M328.1 156.68C327.902 157.186 328.056 157.428 328.584 157.626L329.772 158.066C330.3 158.242 330.498 158.132 330.74 157.582C331.312 156.284 332.214 155.624 333.776 155.624C335.316 155.624 336.328 156.746 336.328 158.088C336.328 160.266 334.348 160.948 332.324 161.74C330.168 162.598 327.99 163.61 327.99 166.602V168.252C327.99 168.802 328.188 169 328.738 169H338.22C338.77 169 338.968 168.802 338.968 168.252V167.174C338.968 166.624 338.77 166.426 338.22 166.426H330.872V166.03C330.872 165.018 332.17 164.622 333.094 164.27C337.516 162.51 339.232 161.256 339.232 157.956C339.232 155.36 337.23 153.05 333.886 153.05C330.718 153.05 329.002 154.48 328.1 156.68ZM351.06 153.38H343.382C342.546 153.38 342.26 153.644 342.172 154.458L341.512 160.86C341.446 161.476 341.644 161.74 342.304 161.74H346.946C348.486 161.74 349.542 162.664 349.542 164.138C349.542 165.81 348.442 166.756 346.902 166.756C345.01 166.756 344.064 166.096 343.58 164.82C343.382 164.27 343.162 164.16 342.634 164.358L341.424 164.776C340.896 164.974 340.764 165.216 340.962 165.744C341.798 168.054 343.624 169.33 346.924 169.33C350.444 169.33 352.446 166.954 352.446 164.138C352.446 161.432 350.73 159.188 347.1 159.188H344.438L344.768 155.954H351.06C351.632 155.954 351.808 155.756 351.808 155.206V154.128C351.808 153.578 351.632 153.38 351.06 153.38ZM364.166 153.38H356.488C355.652 153.38 355.366 153.644 355.278 154.458L354.618 160.86C354.552 161.476 354.75 161.74 355.41 161.74H360.052C361.592 161.74 362.648 162.664 362.648 164.138C362.648 165.81 361.548 166.756 360.008 166.756C358.116 166.756 357.17 166.096 356.686 164.82C356.488 164.27 356.268 164.16 355.74 164.358L354.53 164.776C354.002 164.974 353.87 165.216 354.068 165.744C354.904 168.054 356.73 169.33 360.03 169.33C363.55 169.33 365.552 166.954 365.552 164.138C365.552 161.432 363.836 159.188 360.206 159.188H357.544L357.874 155.954H364.166C364.738 155.954 364.914 155.756 364.914 155.206V154.128C364.914 153.578 364.738 153.38 364.166 153.38ZM376.941 160.75C376.941 158.88 375.753 157.604 373.575 157.604H368.317C367.789 157.604 367.635 157.758 367.635 158.286V168.318C367.635 168.824 367.789 169 368.317 169H373.883C376.039 169 377.381 167.724 377.381 165.766C377.381 164.556 376.853 163.61 375.885 163.06C376.611 162.532 376.941 161.74 376.941 160.75ZM373.157 162.136H370.187V159.76H373.135C373.949 159.76 374.389 160.222 374.389 160.948C374.389 161.652 373.927 162.136 373.157 162.136ZM373.377 166.844H370.187V164.226H373.355C374.213 164.226 374.719 164.732 374.719 165.502C374.719 166.316 374.213 166.844 373.377 166.844ZM336.812 178.83H335.558C335.008 178.83 334.81 179.028 334.81 179.578V180.7H333.666C329.794 180.7 327.726 182.812 327.726 186.288V187.982C327.726 191.458 329.794 193.57 333.666 193.57H334.81V194.692C334.81 195.242 335.008 195.44 335.558 195.44H336.812C337.384 195.44 337.582 195.242 337.582 194.692V193.57H338.726C342.598 193.57 344.666 191.458 344.666 187.982V186.288C344.666 182.812 342.598 180.7 338.726 180.7H337.582V179.578C337.582 179.028 337.384 178.83 336.812 178.83ZM333.666 183.186H334.81V191.084H333.666C331.576 191.084 330.498 190.05 330.498 188.092V186.178C330.498 184.22 331.576 183.186 333.666 183.186ZM341.894 186.178V188.092C341.894 190.05 340.816 191.084 338.726 191.084H337.582V183.186H338.726C340.816 183.186 341.894 184.22 341.894 186.178ZM355.056 183.604H348.038C347.532 183.604 347.356 183.758 347.356 184.264V187.542C347.356 191.964 346.278 192.536 345.442 192.954C345.068 193.152 344.98 193.372 345.178 193.746L345.75 194.89C345.948 195.286 346.19 195.418 346.586 195.242C348.148 194.494 349.842 193.262 349.842 187.696V185.958H353.186V194.318C353.186 194.824 353.362 195 353.868 195H355.056C355.562 195 355.738 194.824 355.738 194.318V184.264C355.738 183.758 355.562 183.604 355.056 183.604ZM358.092 185.562C357.828 186.068 357.982 186.332 358.466 186.552L359.346 186.926C359.852 187.124 359.984 187.058 360.292 186.596C360.754 185.892 361.502 185.54 362.602 185.54C364.252 185.54 364.802 186.332 364.802 187.718V188.334C364.428 188.312 363.548 188.224 362.69 188.224C359.17 188.224 357.696 189.126 357.696 191.766C357.696 194.054 358.708 195.33 362.602 195.33C364.406 195.33 365.748 195.11 366.562 194.758C367.178 194.494 367.354 194.274 367.354 193.504V187.806C367.354 185.21 366.254 183.274 362.646 183.274C360.358 183.274 358.84 184.132 358.092 185.562ZM364.802 190.424V192.734C364.802 192.932 364.736 192.976 364.56 193.042C364.164 193.13 363.482 193.218 362.36 193.218C360.644 193.218 360.292 192.646 360.292 191.744C360.292 190.842 360.732 190.314 362.404 190.314C363.262 190.314 364.34 190.402 364.802 190.424ZM376.892 183.604H370.358C369.852 183.604 369.698 183.758 369.698 184.264V194.318C369.698 194.824 369.852 195 370.358 195H371.568C372.074 195 372.25 194.824 372.25 194.318V185.958H376.892C377.398 185.958 377.574 185.782 377.574 185.276V184.264C377.574 183.758 377.398 183.604 376.892 183.604ZM389.976 183.604H389.008C388.458 183.604 388.304 183.736 388.062 184.176L384.916 189.874L381.726 184.154C381.484 183.714 381.308 183.604 380.758 183.604H379.878C379.262 183.604 379.13 183.78 379.13 184.33V194.318C379.13 194.868 379.262 195 379.812 195H380.802C381.308 195 381.462 194.846 381.462 194.318V190.402C381.462 189.522 381.264 188.268 381.022 187.058H381.11C381.506 188.224 381.748 188.752 382.21 189.544L383.75 192.184C383.992 192.624 384.168 192.712 384.586 192.712H385.202C385.664 192.712 385.796 192.602 386.038 192.206L387.578 189.522C388.04 188.774 388.326 188.18 388.7 187.08H388.788C388.524 188.246 388.326 189.478 388.326 190.336V194.318C388.326 194.868 388.458 195 389.008 195H390.042C390.548 195 390.724 194.846 390.724 194.318V184.33C390.724 183.78 390.592 183.604 389.976 183.604ZM393.047 185.562C392.783 186.068 392.937 186.332 393.421 186.552L394.301 186.926C394.807 187.124 394.939 187.058 395.247 186.596C395.709 185.892 396.457 185.54 397.557 185.54C399.207 185.54 399.757 186.332 399.757 187.718V188.334C399.383 188.312 398.503 188.224 397.645 188.224C394.125 188.224 392.651 189.126 392.651 191.766C392.651 194.054 393.663 195.33 397.557 195.33C399.361 195.33 400.703 195.11 401.517 194.758C402.133 194.494 402.309 194.274 402.309 193.504V187.806C402.309 185.21 401.209 183.274 397.601 183.274C395.313 183.274 393.795 184.132 393.047 185.562ZM399.757 190.424V192.734C399.757 192.932 399.691 192.976 399.515 193.042C399.119 193.13 398.437 193.218 397.315 193.218C395.599 193.218 395.247 192.646 395.247 191.744C395.247 190.842 395.687 190.314 397.359 190.314C398.217 190.314 399.295 190.402 399.757 190.424ZM413.695 183.604H412.485C411.979 183.604 411.803 183.758 411.803 184.264V188.004H407.205V184.264C407.205 183.758 407.029 183.604 406.523 183.604H405.313C404.807 183.604 404.653 183.758 404.653 184.264V194.318C404.653 194.824 404.807 195 405.313 195H406.523C407.029 195 407.205 194.824 407.205 194.318V190.38H411.803V194.318C411.803 194.824 411.979 195 412.485 195H413.695C414.201 195 414.355 194.824 414.355 194.318V184.264C414.355 183.758 414.201 183.604 413.695 183.604ZM418.043 197.002L419.385 193.086C419.583 192.558 419.385 192.294 418.703 192.294H417.713C417.119 192.294 416.899 192.47 416.811 193.086L416.261 197.178C416.217 197.574 416.305 197.684 416.723 197.684H417.207C417.713 197.684 417.867 197.486 418.043 197.002ZM338.396 205.38H328.056C327.484 205.38 327.308 205.578 327.308 206.128V207.206C327.308 207.756 327.484 207.954 328.056 207.954H331.84V220.252C331.84 220.802 332.038 221 332.588 221H333.864C334.414 221 334.612 220.802 334.612 220.252V207.954H338.396C338.946 207.954 339.144 207.756 339.144 207.206V206.128C339.144 205.578 338.946 205.38 338.396 205.38ZM353.915 218.426H352.815V206.128C352.815 205.578 352.617 205.38 352.045 205.38H350.791C350.241 205.38 350.043 205.578 350.043 206.128V218.426H343.751V206.128C343.751 205.578 343.553 205.38 343.003 205.38H341.749C341.177 205.38 340.979 205.578 340.979 206.128V220.252C340.979 220.802 341.177 221 341.749 221H352.001V223.618C352.001 224.168 352.199 224.366 352.749 224.366H353.915C354.465 224.366 354.663 224.168 354.663 223.618V219.174C354.663 218.624 354.465 218.426 353.915 218.426Z" fill="#316197"/>
<path d="M62.1 156.68C61.902 157.186 62.056 157.428 62.584 157.626L63.772 158.066C64.3 158.242 64.498 158.132 64.74 157.582C65.312 156.284 66.214 155.624 67.776 155.624C69.316 155.624 70.328 156.746 70.328 158.088C70.328 160.266 68.348 160.948 66.324 161.74C64.168 162.598 61.99 163.61 61.99 166.602V168.252C61.99 168.802 62.188 169 62.738 169H72.22C72.77 169 72.968 168.802 72.968 168.252V167.174C72.968 166.624 72.77 166.426 72.22 166.426H64.872V166.03C64.872 165.018 66.17 164.622 67.094 164.27C71.516 162.51 73.232 161.256 73.232 157.956C73.232 155.36 71.23 153.05 67.886 153.05C64.718 153.05 63.002 154.48 62.1 156.68ZM86.6465 162.928H85.1285V154.084C85.1285 153.512 84.9525 153.336 84.3805 153.336H83.1705C82.6645 153.336 82.4665 153.446 82.1145 153.864L74.8105 162.928C74.5905 163.214 74.5465 163.324 74.5465 163.83V164.622C74.5465 165.194 74.7445 165.37 75.2945 165.37H82.5545V168.252C82.5545 168.802 82.7525 169 83.3025 169H84.3805C84.9525 169 85.1285 168.802 85.1285 168.252V165.37H86.6465C87.2185 165.37 87.3945 165.194 87.3945 164.622V163.676C87.3945 163.126 87.2185 162.928 86.6465 162.928ZM82.5545 157.032V162.928H77.7805L82.5545 157.032ZM100.525 162.928H99.0074V154.084C99.0074 153.512 98.8314 153.336 98.2594 153.336H97.0494C96.5434 153.336 96.3454 153.446 95.9934 153.864L88.6894 162.928C88.4694 163.214 88.4254 163.324 88.4254 163.83V164.622C88.4254 165.194 88.6234 165.37 89.1734 165.37H96.4334V168.252C96.4334 168.802 96.6314 169 97.1814 169H98.2594C98.8314 169 99.0074 168.802 99.0074 168.252V165.37H100.525C101.097 165.37 101.273 165.194 101.273 164.622V163.676C101.273 163.126 101.097 162.928 100.525 162.928ZM96.4334 157.032V162.928H91.6594L96.4334 157.032ZM102.898 159.562C102.634 160.068 102.788 160.332 103.272 160.552L104.152 160.926C104.658 161.124 104.79 161.058 105.098 160.596C105.56 159.892 106.308 159.54 107.408 159.54C109.058 159.54 109.608 160.332 109.608 161.718V162.334C109.234 162.312 108.354 162.224 107.496 162.224C103.976 162.224 102.502 163.126 102.502 165.766C102.502 168.054 103.514 169.33 107.408 169.33C109.212 169.33 110.554 169.11 111.368 168.758C111.984 168.494 112.16 168.274 112.16 167.504V161.806C112.16 159.21 111.06 157.274 107.452 157.274C105.164 157.274 103.646 158.132 102.898 159.562ZM109.608 164.424V166.734C109.608 166.932 109.542 166.976 109.366 167.042C108.97 167.13 108.288 167.218 107.166 167.218C105.45 167.218 105.098 166.646 105.098 165.744C105.098 164.842 105.538 164.314 107.21 164.314C108.068 164.314 109.146 164.402 109.608 164.424Z" fill="#316197"/>
<path d="M328.1 70.68C327.902 71.186 328.056 71.428 328.584 71.626L329.772 72.066C330.3 72.242 330.498 72.132 330.74 71.582C331.312 70.284 332.214 69.624 333.776 69.624C335.316 69.624 336.328 70.746 336.328 72.088C336.328 74.266 334.348 74.948 332.324 75.74C330.168 76.598 327.99 77.61 327.99 80.602V82.252C327.99 82.802 328.188 83 328.738 83H338.22C338.77 83 338.968 82.802 338.968 82.252V81.174C338.968 80.624 338.77 80.426 338.22 80.426H330.872V80.03C330.872 79.018 332.17 78.622 333.094 78.27C337.516 76.51 339.232 75.256 339.232 71.956C339.232 69.36 337.23 67.05 333.886 67.05C330.718 67.05 329.002 68.48 328.1 70.68ZM351.06 67.38H343.382C342.546 67.38 342.26 67.644 342.172 68.458L341.512 74.86C341.446 75.476 341.644 75.74 342.304 75.74H346.946C348.486 75.74 349.542 76.664 349.542 78.138C349.542 79.81 348.442 80.756 346.902 80.756C345.01 80.756 344.064 80.096 343.58 78.82C343.382 78.27 343.162 78.16 342.634 78.358L341.424 78.776C340.896 78.974 340.764 79.216 340.962 79.744C341.798 82.054 343.624 83.33 346.924 83.33C350.444 83.33 352.446 80.954 352.446 78.138C352.446 75.432 350.73 73.188 347.1 73.188H344.438L344.768 69.954H351.06C351.632 69.954 351.808 69.756 351.808 69.206V68.128C351.808 67.578 351.632 67.38 351.06 67.38ZM364.166 67.38H356.488C355.652 67.38 355.366 67.644 355.278 68.458L354.618 74.86C354.552 75.476 354.75 75.74 355.41 75.74H360.052C361.592 75.74 362.648 76.664 362.648 78.138C362.648 79.81 361.548 80.756 360.008 80.756C358.116 80.756 357.17 80.096 356.686 78.82C356.488 78.27 356.268 78.16 355.74 78.358L354.53 78.776C354.002 78.974 353.87 79.216 354.068 79.744C354.904 82.054 356.73 83.33 360.03 83.33C363.55 83.33 365.552 80.954 365.552 78.138C365.552 75.432 363.836 73.188 360.206 73.188H357.544L357.874 69.954H364.166C364.738 69.954 364.914 69.756 364.914 69.206V68.128C364.914 67.578 364.738 67.38 364.166 67.38ZM367.437 73.562C367.173 74.068 367.327 74.332 367.811 74.552L368.691 74.926C369.197 75.124 369.329 75.058 369.637 74.596C370.099 73.892 370.847 73.54 371.947 73.54C373.597 73.54 374.147 74.332 374.147 75.718V76.334C373.773 76.312 372.893 76.224 372.035 76.224C368.515 76.224 367.041 77.126 367.041 79.766C367.041 82.054 368.053 83.33 371.947 83.33C373.751 83.33 375.093 83.11 375.907 82.758C376.523 82.494 376.699 82.274 376.699 81.504V75.806C376.699 73.21 375.599 71.274 371.991 71.274C369.703 71.274 368.185 72.132 367.437 73.562ZM374.147 78.424V80.734C374.147 80.932 374.081 80.976 373.905 81.042C373.509 81.13 372.827 81.218 371.705 81.218C369.989 81.218 369.637 80.646 369.637 79.744C369.637 78.842 370.077 78.314 371.749 78.314C372.607 78.314 373.685 78.402 374.147 78.424Z" fill="#316197"/>
<path d="M225.1 387.68C224.902 388.186 225.056 388.428 225.584 388.626L226.772 389.066C227.3 389.242 227.498 389.132 227.74 388.582C228.312 387.284 229.214 386.624 230.776 386.624C232.316 386.624 233.328 387.746 233.328 389.088C233.328 391.266 231.348 391.948 229.324 392.74C227.168 393.598 224.99 394.61 224.99 397.602V399.252C224.99 399.802 225.188 400 225.738 400H235.22C235.77 400 235.968 399.802 235.968 399.252V398.174C235.968 397.624 235.77 397.426 235.22 397.426H227.872V397.03C227.872 396.018 229.17 395.622 230.094 395.27C234.516 393.51 236.232 392.256 236.232 388.956C236.232 386.36 234.23 384.05 230.886 384.05C227.718 384.05 226.002 385.48 225.1 387.68ZM248.06 384.38H240.382C239.546 384.38 239.26 384.644 239.172 385.458L238.512 391.86C238.446 392.476 238.644 392.74 239.304 392.74H243.946C245.486 392.74 246.542 393.664 246.542 395.138C246.542 396.81 245.442 397.756 243.902 397.756C242.01 397.756 241.064 397.096 240.58 395.82C240.382 395.27 240.162 395.16 239.634 395.358L238.424 395.776C237.896 395.974 237.764 396.216 237.962 396.744C238.798 399.054 240.624 400.33 243.924 400.33C247.444 400.33 249.446 397.954 249.446 395.138C249.446 392.432 247.73 390.188 244.1 390.188H241.438L241.768 386.954H248.06C248.632 386.954 248.808 386.756 248.808 386.206V385.128C248.808 384.578 248.632 384.38 248.06 384.38ZM261.166 384.38H253.488C252.652 384.38 252.366 384.644 252.278 385.458L251.618 391.86C251.552 392.476 251.75 392.74 252.41 392.74H257.052C258.592 392.74 259.648 393.664 259.648 395.138C259.648 396.81 258.548 397.756 257.008 397.756C255.116 397.756 254.17 397.096 253.686 395.82C253.488 395.27 253.268 395.16 252.74 395.358L251.53 395.776C251.002 395.974 250.87 396.216 251.068 396.744C251.904 399.054 253.73 400.33 257.03 400.33C260.55 400.33 262.552 397.954 262.552 395.138C262.552 392.432 260.836 390.188 257.206 390.188H254.544L254.874 386.954H261.166C261.738 386.954 261.914 386.756 261.914 386.206V385.128C261.914 384.578 261.738 384.38 261.166 384.38ZM271.829 388.604H265.295C264.789 388.604 264.635 388.758 264.635 389.264V399.318C264.635 399.824 264.789 400 265.295 400H266.505C267.011 400 267.187 399.824 267.187 399.318V390.958H271.829C272.335 390.958 272.511 390.782 272.511 390.276V389.264C272.511 388.758 272.335 388.604 271.829 388.604Z" fill="#316197"/>
<path d="M114.812 424.83H113.558C113.008 424.83 112.81 425.028 112.81 425.578V426.7H111.666C107.794 426.7 105.726 428.812 105.726 432.288V433.982C105.726 437.458 107.794 439.57 111.666 439.57H112.81V440.692C112.81 441.242 113.008 441.44 113.558 441.44H114.812C115.384 441.44 115.582 441.242 115.582 440.692V439.57H116.726C120.598 439.57 122.666 437.458 122.666 433.982V432.288C122.666 428.812 120.598 426.7 116.726 426.7H115.582V425.578C115.582 425.028 115.384 424.83 114.812 424.83ZM111.666 429.186H112.81V437.084H111.666C109.576 437.084 108.498 436.05 108.498 434.092V432.178C108.498 430.22 109.576 429.186 111.666 429.186ZM119.894 432.178V434.092C119.894 436.05 118.816 437.084 116.726 437.084H115.582V429.186H116.726C118.816 429.186 119.894 430.22 119.894 432.178ZM133.056 429.604H126.038C125.532 429.604 125.356 429.758 125.356 430.264V433.542C125.356 437.964 124.278 438.536 123.442 438.954C123.068 439.152 122.98 439.372 123.178 439.746L123.75 440.89C123.948 441.286 124.19 441.418 124.586 441.242C126.148 440.494 127.842 439.262 127.842 433.696V431.958H131.186V440.318C131.186 440.824 131.362 441 131.868 441H133.056C133.562 441 133.738 440.824 133.738 440.318V430.264C133.738 429.758 133.562 429.604 133.056 429.604ZM136.092 431.562C135.828 432.068 135.982 432.332 136.466 432.552L137.346 432.926C137.852 433.124 137.984 433.058 138.292 432.596C138.754 431.892 139.502 431.54 140.602 431.54C142.252 431.54 142.802 432.332 142.802 433.718V434.334C142.428 434.312 141.548 434.224 140.69 434.224C137.17 434.224 135.696 435.126 135.696 437.766C135.696 440.054 136.708 441.33 140.602 441.33C142.406 441.33 143.748 441.11 144.562 440.758C145.178 440.494 145.354 440.274 145.354 439.504V433.806C145.354 431.21 144.254 429.274 140.646 429.274C138.358 429.274 136.84 430.132 136.092 431.562ZM142.802 436.424V438.734C142.802 438.932 142.736 438.976 142.56 439.042C142.164 439.13 141.482 439.218 140.36 439.218C138.644 439.218 138.292 438.646 138.292 437.744C138.292 436.842 138.732 436.314 140.404 436.314C141.262 436.314 142.34 436.402 142.802 436.424ZM154.892 429.604H148.358C147.852 429.604 147.698 429.758 147.698 430.264V440.318C147.698 440.824 147.852 441 148.358 441H149.568C150.074 441 150.25 440.824 150.25 440.318V431.958H154.892C155.398 431.958 155.574 431.782 155.574 431.276V430.264C155.574 429.758 155.398 429.604 154.892 429.604ZM167.976 429.604H167.008C166.458 429.604 166.304 429.736 166.062 430.176L162.916 435.874L159.726 430.154C159.484 429.714 159.308 429.604 158.758 429.604H157.878C157.262 429.604 157.13 429.78 157.13 430.33V440.318C157.13 440.868 157.262 441 157.812 441H158.802C159.308 441 159.462 440.846 159.462 440.318V436.402C159.462 435.522 159.264 434.268 159.022 433.058H159.11C159.506 434.224 159.748 434.752 160.21 435.544L161.75 438.184C161.992 438.624 162.168 438.712 162.586 438.712H163.202C163.664 438.712 163.796 438.602 164.038 438.206L165.578 435.522C166.04 434.774 166.326 434.18 166.7 433.08H166.788C166.524 434.246 166.326 435.478 166.326 436.336V440.318C166.326 440.868 166.458 441 167.008 441H168.042C168.548 441 168.724 440.846 168.724 440.318V430.33C168.724 429.78 168.592 429.604 167.976 429.604ZM171.047 431.562C170.783 432.068 170.937 432.332 171.421 432.552L172.301 432.926C172.807 433.124 172.939 433.058 173.247 432.596C173.709 431.892 174.457 431.54 175.557 431.54C177.207 431.54 177.757 432.332 177.757 433.718V434.334C177.383 434.312 176.503 434.224 175.645 434.224C172.125 434.224 170.651 435.126 170.651 437.766C170.651 440.054 171.663 441.33 175.557 441.33C177.361 441.33 178.703 441.11 179.517 440.758C180.133 440.494 180.309 440.274 180.309 439.504V433.806C180.309 431.21 179.209 429.274 175.601 429.274C173.313 429.274 171.795 430.132 171.047 431.562ZM177.757 436.424V438.734C177.757 438.932 177.691 438.976 177.515 439.042C177.119 439.13 176.437 439.218 175.315 439.218C173.599 439.218 173.247 438.646 173.247 437.744C173.247 436.842 173.687 436.314 175.359 436.314C176.217 436.314 177.295 436.402 177.757 436.424ZM191.695 429.604H190.485C189.979 429.604 189.803 429.758 189.803 430.264V434.004H185.205V430.264C185.205 429.758 185.029 429.604 184.523 429.604H183.313C182.807 429.604 182.653 429.758 182.653 430.264V440.318C182.653 440.824 182.807 441 183.313 441H184.523C185.029 441 185.205 440.824 185.205 440.318V436.38H189.803V440.318C189.803 440.824 189.979 441 190.485 441H191.695C192.201 441 192.355 440.824 192.355 440.318V430.264C192.355 429.758 192.201 429.604 191.695 429.604ZM196.043 443.002L197.385 439.086C197.583 438.558 197.385 438.294 196.703 438.294H195.713C195.119 438.294 194.899 438.47 194.811 439.086L194.261 443.178C194.217 443.574 194.305 443.684 194.723 443.684H195.207C195.713 443.684 195.867 443.486 196.043 443.002ZM204.172 433.674V436.93C204.172 439.658 205.976 441.33 209.232 441.33C212.532 441.33 214.314 439.658 214.314 436.93V433.674C214.314 430.946 212.532 429.274 209.232 429.274C205.976 429.274 204.172 430.946 204.172 433.674ZM211.762 433.674V436.93C211.762 438.25 210.86 439.02 209.232 439.02C207.626 439.02 206.724 438.25 206.724 436.93V433.674C206.724 432.332 207.626 431.584 209.232 431.584C210.86 431.584 211.762 432.332 211.762 433.674ZM224.653 429.34V425.424C224.653 424.918 224.477 424.742 223.971 424.742H222.761C222.255 424.742 222.101 424.918 222.101 425.424V429.34C221.727 429.296 221.331 429.274 220.935 429.274C217.833 429.274 216.095 430.88 216.095 434.136V436.49C216.095 439.746 217.833 441.33 220.935 441.33C221.331 441.33 221.727 441.308 222.101 441.242V445.158C222.101 445.664 222.255 445.84 222.761 445.84H223.971C224.477 445.84 224.653 445.664 224.653 445.158V441.242C225.027 441.308 225.401 441.33 225.797 441.33C228.899 441.33 230.637 439.746 230.637 436.49V434.114C230.637 430.836 228.899 429.274 225.797 429.274C225.401 429.274 225.027 429.296 224.653 429.34ZM218.647 436.424V434.224C218.647 432.332 219.637 431.606 221.111 431.606C221.507 431.606 221.815 431.628 222.167 431.65V438.932C221.815 438.976 221.507 438.998 221.111 438.998C219.637 438.998 218.647 438.294 218.647 436.424ZM228.085 434.18V436.424C228.085 438.294 227.095 438.998 225.621 438.998C225.225 438.998 224.917 438.976 224.565 438.932V431.65C224.917 431.628 225.225 431.606 225.621 431.606C227.095 431.606 228.085 432.31 228.085 434.18ZM234.667 429.604H233.457C232.951 429.604 232.797 429.758 232.797 430.264V440.318C232.797 440.824 232.951 441 233.457 441H234.667C234.975 441 235.151 440.912 235.349 440.648L239.199 435.17C239.727 434.378 240.101 433.828 240.475 432.948H240.541C240.277 433.872 240.057 434.73 240.057 436.182V440.318C240.057 440.824 240.233 441 240.739 441H241.949C242.455 441 242.609 440.824 242.609 440.318V430.264C242.609 429.758 242.455 429.604 241.949 429.604H240.739C240.431 429.604 240.255 429.692 240.079 429.934L236.185 435.456C235.723 436.138 235.393 436.622 234.953 437.678H234.887C235.195 436.578 235.349 435.72 235.349 434.466V430.264C235.349 429.758 235.173 429.604 234.667 429.604ZM244.777 433.784V436.82C244.777 439.614 246.295 441.33 249.639 441.33C252.301 441.33 253.819 440.274 254.545 438.404C254.765 437.854 254.589 437.612 254.083 437.414L253.093 437.128C252.565 436.952 252.323 437.04 252.125 437.568C251.773 438.514 251.003 439.086 249.727 439.086C248.143 439.086 247.329 438.294 247.329 436.93V433.674C247.329 432.288 248.143 431.518 249.727 431.518C251.025 431.518 251.773 432.068 252.125 432.992C252.323 433.52 252.565 433.674 253.093 433.454L254.061 433.146C254.567 432.948 254.721 432.706 254.545 432.156C253.995 430.506 252.455 429.274 249.837 429.274C246.383 429.274 244.777 430.99 244.777 433.784ZM265.558 429.604H264.348C263.842 429.604 263.666 429.758 263.666 430.264V434.004H259.068V430.264C259.068 429.758 258.892 429.604 258.386 429.604H257.176C256.67 429.604 256.516 429.758 256.516 430.264V440.318C256.516 440.824 256.67 441 257.176 441H258.386C258.892 441 259.068 440.824 259.068 440.318V436.38H263.666V440.318C263.666 440.824 263.842 441 264.348 441H265.558C266.064 441 266.218 440.824 266.218 440.318V430.264C266.218 429.758 266.064 429.604 265.558 429.604ZM274.218 432.86H271.314V430.264C271.314 429.758 271.138 429.604 270.632 429.604H269.422C268.916 429.604 268.762 429.758 268.762 430.264V440.318C268.762 440.824 268.916 441 269.422 441H274.218C276.792 441 278.376 439.46 278.376 436.908C278.376 434.378 276.792 432.86 274.218 432.86ZM281.302 429.604H280.114C279.608 429.604 279.432 429.758 279.432 430.264V440.318C279.432 440.824 279.608 441 280.114 441H281.302C281.808 441 281.984 440.824 281.984 440.318V430.264C281.984 429.758 281.808 429.604 281.302 429.604ZM273.91 438.712H271.314V435.17H273.91C275.032 435.17 275.714 435.852 275.714 436.908C275.714 437.964 275.032 438.712 273.91 438.712ZM292.98 425.864C293.112 425.534 293.024 425.402 292.694 425.248L291.682 424.874C291.374 424.786 291.242 424.83 291.11 425.138C290.868 425.864 290.318 426.282 289.57 426.282C288.822 426.282 288.272 425.864 288.03 425.138C287.898 424.83 287.744 424.786 287.348 424.896L286.49 425.248C286.138 425.38 286.072 425.534 286.182 425.864C286.666 427.294 287.92 428.13 289.57 428.13C291.242 428.13 292.496 427.294 292.98 425.864ZM286.402 429.604H285.192C284.686 429.604 284.532 429.758 284.532 430.264V440.318C284.532 440.824 284.686 441 285.192 441H286.402C286.71 441 286.886 440.912 287.084 440.648L290.934 435.17C291.462 434.378 291.836 433.828 292.21 432.948H292.276C292.012 433.872 291.792 434.73 291.792 436.182V440.318C291.792 440.824 291.968 441 292.474 441L293.684 441C294.19 441 294.344 440.824 294.344 440.318V430.264C294.344 429.758 294.19 429.604 293.684 429.604H292.474C292.166 429.604 291.99 429.692 291.814 429.934L287.92 435.456C287.458 436.138 287.128 436.622 286.688 437.678H286.622C286.93 436.578 287.084 435.72 287.084 434.466V430.264C287.084 429.758 286.908 429.604 286.402 429.604ZM312.236 438.624H311.224V430.264C311.224 429.758 311.048 429.604 310.542 429.604H309.332C308.826 429.604 308.672 429.758 308.672 430.264V438.624H304.25V430.264C304.25 429.758 304.074 429.604 303.568 429.604H302.358C301.852 429.604 301.698 429.758 301.698 430.264V440.318C301.698 440.824 301.852 441 302.358 441H310.432V443.376C310.432 443.882 310.608 444.058 311.114 444.058H312.236C312.742 444.058 312.896 443.882 312.896 443.376V439.328C312.896 438.8 312.742 438.624 312.236 438.624ZM314.128 434.026V436.622C314.128 439.328 315.58 441.33 319.188 441.33C321.674 441.33 323.148 440.516 323.94 439.218C324.248 438.734 324.182 438.36 323.676 438.118L322.906 437.7C322.378 437.414 322.136 437.48 321.784 437.964C321.322 438.69 320.486 439.13 319.188 439.13C317.582 439.13 316.68 438.36 316.68 436.93V436.116H323.324C324.094 436.116 324.314 435.742 324.314 435.17V433.828C324.314 431.298 322.73 429.274 319.232 429.274C315.91 429.274 314.128 430.968 314.128 434.026ZM321.762 433.674V434.158H316.68V433.674C316.68 432.244 317.582 431.43 319.232 431.43C320.904 431.43 321.762 432.244 321.762 433.674ZM335.382 429.604H334.172C333.666 429.604 333.49 429.758 333.49 430.264V434.004H328.892V430.264C328.892 429.758 328.716 429.604 328.21 429.604H327C326.494 429.604 326.34 429.758 326.34 430.264V440.318C326.34 440.824 326.494 441 327 441H328.21C328.716 441 328.892 440.824 328.892 440.318V436.38H333.49V440.318C333.49 440.824 333.666 441 334.172 441H335.382C335.888 441 336.042 440.824 336.042 440.318V430.264C336.042 429.758 335.888 429.604 335.382 429.604ZM346.573 429.604H338.279C337.773 429.604 337.597 429.758 337.597 430.264V431.276C337.597 431.782 337.773 431.958 338.279 431.958H341.161V440.318C341.161 440.824 341.337 441 341.843 441H343.031C343.537 441 343.713 440.824 343.713 440.318V431.958H346.573C347.079 431.958 347.255 431.782 347.255 431.276V430.264C347.255 429.758 347.079 429.604 346.573 429.604ZM349.627 429.912C348.923 430.198 348.769 430.462 348.769 431.166V445.158C348.769 445.664 348.945 445.84 349.451 445.84H350.661C351.167 445.84 351.321 445.664 351.321 445.158V440.934C351.915 441.088 352.729 441.33 353.631 441.33C356.953 441.33 358.537 439.68 358.537 436.732V433.718C358.537 430.902 357.063 429.274 353.895 429.274C351.849 429.274 350.529 429.582 349.627 429.912ZM355.985 433.784V436.644C355.985 438.228 355.193 438.998 353.455 438.998C352.597 438.998 351.827 438.8 351.321 438.668V432.134C351.321 431.98 351.365 431.914 351.541 431.848C352.091 431.694 352.707 431.606 353.521 431.606C355.127 431.606 355.985 432.354 355.985 433.784Z" fill="#316197"/>
<circle cx="203" cy="355" r="23" fill="#E94944"/>
<path d="M203 400L223 366.5L224.651 362.5H181.349L183 366.5L203 400Z" fill="#E94944"/>
<circle cx="203" cy="355" r="12" fill="white"/>
<defs>
<filter id="filter0_d_3_30" x="180" y="52" width="104" height="264" filterUnits="userSpaceOnUse" color-interpolation-filters="sRGB">
<feFlood flood-opacity="0" result="BackgroundImageFix"/>
<feColorMatrix in="SourceAlpha" type="matrix" values="0 0 0 0 0 0 0 0 0 0 0 0 0 0 0 0 0 0 127 0" result="hardAlpha"/>
<feOffset dx="3" dy="3"/>
<feGaussianBlur stdDeviation="0.5"/>
<feComposite in2="hardAlpha" operator="out"/>
<feColorMatrix type="matrix" values="0 0 0 0 0 0 0 0 0 0 0 0 0 0 0 0 0 0 0.25 0"/>
<feBlend mode="normal" in2="BackgroundImageFix" result="effect1_dropShadow_3_30"/>
<feBlend mode="normal" in="SourceGraphic" in2="effect1_dropShadow_3_30" result="shape"/>
</filter>
<filter id="filter1_d_3_30" x="323" y="52" width="104" height="63" filterUnits="userSpaceOnUse" color-interpolation-filters="sRGB">
<feFlood flood-opacity="0" result="BackgroundImageFix"/>
<feColorMatrix in="SourceAlpha" type="matrix" values="0 0 0 0 0 0 0 0 0 0 0 0 0 0 0 0 0 0 127 0" result="hardAlpha"/>
<feOffset dx="3" dy="3"/>
<feGaussianBlur stdDeviation="0.5"/>
<feComposite in2="hardAlpha" operator="out"/>
<feColorMatrix type="matrix" values="0 0 0 0 0 0 0 0 0 0 0 0 0 0 0 0 0 0 0.25 0"/>
<feBlend mode="normal" in2="BackgroundImageFix" result="effect1_dropShadow_3_30"/>
<feBlend mode="normal" in="SourceGraphic" in2="effect1_dropShadow_3_30" result="shape"/>
</filter>
<filter id="filter2_d_3_30" x="180" y="373" width="104" height="44" filterUnits="userSpaceOnUse" color-interpolation-filters="sRGB">
<feFlood flood-opacity="0" result="BackgroundImageFix"/>
<feColorMatrix in="SourceAlpha" type="matrix" values="0 0 0 0 0 0 0 0 0 0 0 0 0 0 0 0 0 0 127 0" result="hardAlpha"/>
<feOffset dx="3" dy="3"/>
<feGaussianBlur stdDeviation="0.5"/>
<feComposite in2="hardAlpha" operator="out"/>
<feColorMatrix type="matrix" values="0 0 0 0 0 0 0 0 0 0 0 0 0 0 0 0 0 0 0.25 0"/>
<feBlend mode="normal" in2="BackgroundImageFix" result="effect1_dropShadow_3_30"/>
<feBlend mode="normal" in="SourceGraphic" in2="effect1_dropShadow_3_30" result="shape"/>
</filter>
<filter id="filter3_d_3_30" x="323" y="133" width="104" height="183" filterUnits="userSpaceOnUse" color-interpolation-filters="sRGB">
<feFlood flood-opacity="0" result="BackgroundImageFix"/>
<feColorMatrix in="SourceAlpha" type="matrix" values="0 0 0 0 0 0 0 0 0 0 0 0 0 0 0 0 0 0 127 0" result="hardAlpha"/>
<feOffset dx="3" dy="3"/>
<feGaussianBlur stdDeviation="0.5"/>
<feComposite in2="hardAlpha" operator="out"/>
<feColorMatrix type="matrix" values="0 0 0 0 0 0 0 0 0 0 0 0 0 0 0 0 0 0 0.25 0"/>
<feBlend mode="normal" in2="BackgroundImageFix" result="effect1_dropShadow_3_30"/>
<feBlend mode="normal" in="SourceGraphic" in2="effect1_dropShadow_3_30" result="shape"/>
</filter>
<filter id="filter4_d_3_30" x="54" y="52" width="82" height="264" filterUnits="userSpaceOnUse" color-interpolation-filters="sRGB">
<feFlood flood-opacity="0" result="BackgroundImageFix"/>
<feColorMatrix in="SourceAlpha" type="matrix" values="0 0 0 0 0 0 0 0 0 0 0 0 0 0 0 0 0 0 127 0" result="hardAlpha"/>
<feOffset dx="3" dy="3"/>
<feGaussianBlur stdDeviation="0.5"/>
<feComposite in2="hardAlpha" operator="out"/>
<feColorMatrix type="matrix" values="0 0 0 0 0 0 0 0 0 0 0 0 0 0 0 0 0 0 0.25 0"/>
<feBlend mode="normal" in2="BackgroundImageFix" result="effect1_dropShadow_3_30"/>
<feBlend mode="normal" in="SourceGraphic" in2="effect1_dropShadow_3_30" result="shape"/>
</filter>
</defs>
</svg>
