<?xml version="1.0" encoding="utf-8"?>
<!-- Generator: Adobe Illustrator 26.2.1, SVG Export Plug-In . SVG Version: 6.00 Build 0)  -->
<svg version="1.1" id="Слой_1" xmlns="http://www.w3.org/2000/svg" xmlns:xlink="http://www.w3.org/1999/xlink" x="0px" y="0px"
	 viewBox="0 0 49 49" style="enable-background:new 0 0 49 49;" xml:space="preserve">
<style type="text/css">
	.st0{fill:#326197;}
</style>
<g>
	<path class="st0" d="M24.5,0C11,0,0,11,0,24.5S11,49,24.5,49S49,38,49,24.5S38,0,24.5,0z M37.4,35.7l-1.9,1.9
		c-0.4,0.4-1.4,0.6-1.4,0.6c-6.2,0.1-12.2-2.4-16.6-6.8c-4.4-4.4-6.8-10.4-6.7-16.6c0,0,0.2-1,0.6-1.4l1.9-1.9
		c0.7-0.7,2.1-1.1,3.1-0.7l0.4,0.1c0.9,0.4,1.9,1.4,2.2,2.4l1,3.6c0.2,1-0.1,2.4-0.8,3.1l-1.3,1.3c1.3,4.8,5,8.5,9.8,9.8l1.3-1.3
		c0.7-0.7,2.1-1.1,3.1-0.8l3.6,1c1,0.3,2.1,1.3,2.4,2.2l0.1,0.4C38.5,33.7,38.1,35,37.4,35.7z"/>
</g>
</svg>
